{
	"asset":{
		"generator":"Khronos glTF Blender I/O v3.6.28",
		"version":"2.0"
	},
	"scene":0,
	"scenes":[
		{
			"name":"Scene",
			"nodes":[
				2,
				3
			]
		}
	],
	"nodes":[
		{
			"mesh":0,
			"name":"body"
		},
		{
			"mesh":1,
			"name":"lid",
			"rotation":[
				-0.70710688829422,
				0,
				0,
				0.7071066498756409
			],
			"scale":[
				100,
				100,
				100
			]
		},
		{
			"children":[
				0,
				1
			],
			"name":"toothbrush-002",
			"rotation":[
				0.70710688829422,
				0,
				0,
				0.7071066498756409
			],
			"scale":[
				0.009999999776482582,
				0.009999999776482582,
				0.009999999776482582
			]
		},
		{
			"name":"Texture Group",
			"rotation":[
				0.70710688829422,
				0,
				0,
				0.7071066498756409
			],
			"scale":[
				0.009999999776482582,
				0.009999999776482582,
				0.009999999776482582
			]
		}
	],
	"animations":[
		{
			"channels":[
				{
					"sampler":0,
					"target":{
						"node":2,
						"path":"translation"
					}
				},
				{
					"sampler":1,
					"target":{
						"node":2,
						"path":"rotation"
					}
				},
				{
					"sampler":2,
					"target":{
						"node":2,
						"path":"scale"
					}
				}
			],
			"name":"toothbrush-002|Take 001|Layer 001",
			"samplers":[
				{
					"input":15,
					"interpolation":"STEP",
					"output":16
				},
				{
					"input":15,
					"interpolation":"STEP",
					"output":17
				},
				{
					"input":15,
					"interpolation":"STEP",
					"output":18
				}
			]
		},
		{
			"channels":[
				{
					"sampler":0,
					"target":{
						"node":0,
						"path":"translation"
					}
				},
				{
					"sampler":1,
					"target":{
						"node":0,
						"path":"rotation"
					}
				},
				{
					"sampler":2,
					"target":{
						"node":0,
						"path":"scale"
					}
				}
			],
			"name":"body|Take 001|Layer 001",
			"samplers":[
				{
					"input":15,
					"interpolation":"STEP",
					"output":19
				},
				{
					"input":15,
					"interpolation":"STEP",
					"output":20
				},
				{
					"input":15,
					"interpolation":"STEP",
					"output":21
				}
			]
		},
		{
			"channels":[
				{
					"sampler":0,
					"target":{
						"node":1,
						"path":"translation"
					}
				},
				{
					"sampler":1,
					"target":{
						"node":1,
						"path":"rotation"
					}
				},
				{
					"sampler":2,
					"target":{
						"node":1,
						"path":"scale"
					}
				}
			],
			"name":"lid|Take 001|Layer 001",
			"samplers":[
				{
					"input":15,
					"interpolation":"STEP",
					"output":22
				},
				{
					"input":15,
					"interpolation":"STEP",
					"output":23
				},
				{
					"input":15,
					"interpolation":"STEP",
					"output":24
				}
			]
		},
		{
			"channels":[
				{
					"sampler":0,
					"target":{
						"node":3,
						"path":"translation"
					}
				},
				{
					"sampler":1,
					"target":{
						"node":3,
						"path":"rotation"
					}
				},
				{
					"sampler":2,
					"target":{
						"node":3,
						"path":"scale"
					}
				}
			],
			"name":"Texture Group|Take 001|Layer 001",
			"samplers":[
				{
					"input":15,
					"interpolation":"STEP",
					"output":25
				},
				{
					"input":15,
					"interpolation":"STEP",
					"output":26
				},
				{
					"input":15,
					"interpolation":"STEP",
					"output":27
				}
			]
		}
	],
	"materials":[
		{
			"doubleSided":true,
			"name":"Default",
			"pbrMetallicRoughness":{
				"baseColorFactor":[
					0.02028856985270977,
					0.42326778173446655,
					0.5457246899604797,
					1
				],
				"metallicFactor":0,
				"roughnessFactor":0.5527864098548889
			}
		},
		{
			"doubleSided":true,
			"name":"bot",
			"pbrMetallicRoughness":{
				"baseColorFactor":[
					0,
					0.5394790768623352,
					1,
					1
				],
				"metallicFactor":0,
				"roughnessFactor":0.5527864098548889
			}
		},
		{
			"doubleSided":true,
			"name":"brusht",
			"pbrMetallicRoughness":{
				"baseColorFactor":[
					0.33881503343582153,
					0.18727879226207733,
					0.02169976197183132,
					1
				],
				"metallicFactor":0,
				"roughnessFactor":0.5527864098548889
			}
		}
	],
	"meshes":[
		{
			"name":"Mesh.001",
			"primitives":[
				{
					"attributes":{
						"POSITION":0,
						"NORMAL":1,
						"TEXCOORD_0":2
					},
					"indices":3,
					"material":0
				},
				{
					"attributes":{
						"POSITION":4,
						"NORMAL":5,
						"TEXCOORD_0":6
					},
					"indices":7,
					"material":1
				},
				{
					"attributes":{
						"POSITION":8
					},
					"indices":9,
					"material":2,
					"mode":1
				}
			]
		},
		{
			"name":"Mesh",
			"primitives":[
				{
					"attributes":{
						"POSITION":10,
						"NORMAL":11,
						"TEXCOORD_0":12,
						"TANGENT":13
					},
					"indices":14,
					"material":1
				}
			]
		}
	],
	"accessors":[
		{
			"bufferView":0,
			"componentType":5126,
			"count":1332,
			"max":[
				0.9991200566291809,
				0.9991086721420288,
				-7.851700305938721
			],
			"min":[
				-0.9991200566291809,
				-0.999131441116333,
				-21.4939022064209
			],
			"type":"VEC3"
		},
		{
			"bufferView":1,
			"componentType":5126,
			"count":1332,
			"type":"VEC3"
		},
		{
			"bufferView":2,
			"componentType":5126,
			"count":1332,
			"type":"VEC2"
		},
		{
			"bufferView":3,
			"componentType":5123,
			"count":6978,
			"type":"SCALAR"
		},
		{
			"bufferView":4,
			"componentType":5126,
			"count":2358,
			"max":[
				1.131250023841858,
				1.1312614679336548,
				0
			],
			"min":[
				-1.131250023841858,
				-1.1312614679336548,
				-9.407157897949219
			],
			"type":"VEC3"
		},
		{
			"bufferView":5,
			"componentType":5126,
			"count":2358,
			"type":"VEC3"
		},
		{
			"bufferView":6,
			"componentType":5126,
			"count":2358,
			"type":"VEC2"
		},
		{
			"bufferView":7,
			"componentType":5123,
			"count":11790,
			"type":"SCALAR"
		},
		{
			"bufferView":8,
			"componentType":5126,
			"count":7488,
			"max":[
				0.5900222063064575,
				0.8356295824050903,
				-18.950977325439453
			],
			"min":[
				-0.5850222110748291,
				0.06921808421611786,
				-21.38821792602539
			],
			"type":"VEC3"
		},
		{
			"bufferView":9,
			"componentType":5123,
			"count":7488,
			"type":"SCALAR"
		},
		{
			"bufferView":10,
			"componentType":5126,
			"count":1446,
			"max":[
				1.131250023841858,
				1.131250023841858,
				-8.448598861694336
			],
			"min":[
				-1.131250023841858,
				-1.131250023841858,
				-21.809598922729492
			],
			"type":"VEC3"
		},
		{
			"bufferView":11,
			"componentType":5126,
			"count":1446,
			"type":"VEC3"
		},
		{
			"bufferView":12,
			"componentType":5126,
			"count":1446,
			"type":"VEC2"
		},
		{
			"bufferView":13,
			"componentType":5126,
			"count":1446,
			"type":"VEC4"
		},
		{
			"bufferView":14,
			"componentType":5123,
			"count":7632,
			"type":"SCALAR"
		},
		{
			"bufferView":15,
			"componentType":5126,
			"count":2,
			"max":[
				5.041666666666667
			],
			"min":[
				0.041666666666666664
			],
			"type":"SCALAR"
		},
		{
			"bufferView":16,
			"componentType":5126,
			"count":2,
			"type":"VEC3"
		},
		{
			"bufferView":17,
			"componentType":5126,
			"count":2,
			"type":"VEC4"
		},
		{
			"bufferView":18,
			"componentType":5126,
			"count":2,
			"type":"VEC3"
		},
		{
			"bufferView":19,
			"componentType":5126,
			"count":2,
			"type":"VEC3"
		},
		{
			"bufferView":20,
			"componentType":5126,
			"count":2,
			"type":"VEC4"
		},
		{
			"bufferView":21,
			"componentType":5126,
			"count":2,
			"type":"VEC3"
		},
		{
			"bufferView":22,
			"componentType":5126,
			"count":2,
			"type":"VEC3"
		},
		{
			"bufferView":23,
			"componentType":5126,
			"count":2,
			"type":"VEC4"
		},
		{
			"bufferView":24,
			"componentType":5126,
			"count":2,
			"type":"VEC3"
		},
		{
			"bufferView":25,
			"componentType":5126,
			"count":2,
			"type":"VEC3"
		},
		{
			"bufferView":26,
			"componentType":5126,
			"count":2,
			"type":"VEC4"
		},
		{
			"bufferView":27,
			"componentType":5126,
			"count":2,
			"type":"VEC3"
		}
	],
	"bufferViews":[
		{
			"buffer":0,
			"byteLength":15984,
			"byteOffset":0,
			"target":34962
		},
		{
			"buffer":0,
			"byteLength":15984,
			"byteOffset":15984,
			"target":34962
		},
		{
			"buffer":0,
			"byteLength":10656,
			"byteOffset":31968,
			"target":34962
		},
		{
			"buffer":0,
			"byteLength":13956,
			"byteOffset":42624,
			"target":34963
		},
		{
			"buffer":0,
			"byteLength":28296,
			"byteOffset":56580,
			"target":34962
		},
		{
			"buffer":0,
			"byteLength":28296,
			"byteOffset":84876,
			"target":34962
		},
		{
			"buffer":0,
			"byteLength":18864,
			"byteOffset":113172,
			"target":34962
		},
		{
			"buffer":0,
			"byteLength":23580,
			"byteOffset":132036,
			"target":34963
		},
		{
			"buffer":0,
			"byteLength":89856,
			"byteOffset":155616,
			"target":34962
		},
		{
			"buffer":0,
			"byteLength":14976,
			"byteOffset":245472,
			"target":34963
		},
		{
			"buffer":0,
			"byteLength":17352,
			"byteOffset":260448,
			"target":34962
		},
		{
			"buffer":0,
			"byteLength":17352,
			"byteOffset":277800,
			"target":34962
		},
		{
			"buffer":0,
			"byteLength":11568,
			"byteOffset":295152,
			"target":34962
		},
		{
			"buffer":0,
			"byteLength":23136,
			"byteOffset":306720,
			"target":34962
		},
		{
			"buffer":0,
			"byteLength":15264,
			"byteOffset":329856,
			"target":34963
		},
		{
			"buffer":0,
			"byteLength":8,
			"byteOffset":345120
		},
		{
			"buffer":0,
			"byteLength":24,
			"byteOffset":345128
		},
		{
			"buffer":0,
			"byteLength":32,
			"byteOffset":345152
		},
		{
			"buffer":0,
			"byteLength":24,
			"byteOffset":345184
		},
		{
			"buffer":0,
			"byteLength":24,
			"byteOffset":345208
		},
		{
			"buffer":0,
			"byteLength":32,
			"byteOffset":345232
		},
		{
			"buffer":0,
			"byteLength":24,
			"byteOffset":345264
		},
		{
			"buffer":0,
			"byteLength":24,
			"byteOffset":345288
		},
		{
			"buffer":0,
			"byteLength":32,
			"byteOffset":345312
		},
		{
			"buffer":0,
			"byteLength":24,
			"byteOffset":345344
		},
		{
			"buffer":0,
			"byteLength":24,
			"byteOffset":345368
		},
		{
			"buffer":0,
			"byteLength":32,
			"byteOffset":345392
		},
		{
			"buffer":0,
			"byteLength":24,
			"byteOffset":345424
		}
	],
	"buffers":[
		{
			"byteLength":345448,
			"uri":"brush.bin"
		}
	]
}
