{
	"asset":{
		"generator":"Khronos glTF Blender I/O v3.6.28",
		"version":"2.0"
	},
	"extensionsUsed":[
		"KHR_materials_specular",
		"KHR_materials_ior"
	],
	"scene":0,
	"scenes":[
		{
			"name":"Scene",
			"nodes":[
				4,
				5
			]
		}
	],
	"nodes":[
		{
			"mesh":0,
			"name":"body",
			"translation":[
				0,
				0,
				-4.900000095367432
			]
		},
		{
			"mesh":1,
			"name":"cream",
			"translation":[
				0,
				0,
				-9.769450187683105
			]
		},
		{
			"mesh":2,
			"name":"lid",
			"translation":[
				0,
				0,
				-10.488351821899414
			]
		},
		{
			"mesh":3,
			"name":"roll",
			"translation":[
				0,
				0,
				-0.49957311153411865
			]
		},
		{
			"children":[
				0,
				1,
				2,
				3
			],
			"name":"deodorant-stick-tube-001",
			"rotation":[
				0.70710688829422,
				0,
				0,
				0.7071066498756409
			],
			"scale":[
				0.009999999776482582,
				0.009999999776482582,
				0.009999999776482582
			]
		},
		{
			"name":"Texture Group",
			"rotation":[
				0.70710688829422,
				0,
				0,
				0.7071066498756409
			],
			"scale":[
				0.009999999776482582,
				0.009999999776482582,
				0.009999999776482582
			]
		}
	],
	"animations":[
		{
			"channels":[
				{
					"sampler":0,
					"target":{
						"node":4,
						"path":"translation"
					}
				},
				{
					"sampler":1,
					"target":{
						"node":4,
						"path":"rotation"
					}
				},
				{
					"sampler":2,
					"target":{
						"node":4,
						"path":"scale"
					}
				}
			],
			"name":"deodorant-stick-tube-001|Take 001|Layer 001",
			"samplers":[
				{
					"input":16,
					"interpolation":"STEP",
					"output":17
				},
				{
					"input":16,
					"interpolation":"STEP",
					"output":18
				},
				{
					"input":16,
					"interpolation":"STEP",
					"output":19
				}
			]
		},
		{
			"channels":[
				{
					"sampler":0,
					"target":{
						"node":0,
						"path":"translation"
					}
				},
				{
					"sampler":1,
					"target":{
						"node":0,
						"path":"rotation"
					}
				},
				{
					"sampler":2,
					"target":{
						"node":0,
						"path":"scale"
					}
				}
			],
			"name":"body|Take 001|Layer 001",
			"samplers":[
				{
					"input":16,
					"interpolation":"STEP",
					"output":20
				},
				{
					"input":16,
					"interpolation":"STEP",
					"output":21
				},
				{
					"input":16,
					"interpolation":"STEP",
					"output":22
				}
			]
		},
		{
			"channels":[
				{
					"sampler":0,
					"target":{
						"node":1,
						"path":"translation"
					}
				},
				{
					"sampler":1,
					"target":{
						"node":1,
						"path":"rotation"
					}
				},
				{
					"sampler":2,
					"target":{
						"node":1,
						"path":"scale"
					}
				}
			],
			"name":"cream|Take 001|Layer 001",
			"samplers":[
				{
					"input":16,
					"interpolation":"STEP",
					"output":23
				},
				{
					"input":16,
					"interpolation":"STEP",
					"output":24
				},
				{
					"input":16,
					"interpolation":"STEP",
					"output":25
				}
			]
		},
		{
			"channels":[
				{
					"sampler":0,
					"target":{
						"node":2,
						"path":"translation"
					}
				},
				{
					"sampler":1,
					"target":{
						"node":2,
						"path":"rotation"
					}
				},
				{
					"sampler":2,
					"target":{
						"node":2,
						"path":"scale"
					}
				}
			],
			"name":"lid|Take 001|Layer 001",
			"samplers":[
				{
					"input":16,
					"interpolation":"STEP",
					"output":26
				},
				{
					"input":16,
					"interpolation":"STEP",
					"output":27
				},
				{
					"input":16,
					"interpolation":"STEP",
					"output":28
				}
			]
		},
		{
			"channels":[
				{
					"sampler":0,
					"target":{
						"node":3,
						"path":"translation"
					}
				},
				{
					"sampler":1,
					"target":{
						"node":3,
						"path":"rotation"
					}
				},
				{
					"sampler":2,
					"target":{
						"node":3,
						"path":"scale"
					}
				}
			],
			"name":"roll|Take 001|Layer 001",
			"samplers":[
				{
					"input":16,
					"interpolation":"STEP",
					"output":29
				},
				{
					"input":16,
					"interpolation":"STEP",
					"output":30
				},
				{
					"input":16,
					"interpolation":"STEP",
					"output":31
				}
			]
		},
		{
			"channels":[
				{
					"sampler":0,
					"target":{
						"node":5,
						"path":"translation"
					}
				},
				{
					"sampler":1,
					"target":{
						"node":5,
						"path":"rotation"
					}
				},
				{
					"sampler":2,
					"target":{
						"node":5,
						"path":"scale"
					}
				}
			],
			"name":"Texture Group|Take 001|Layer 001",
			"samplers":[
				{
					"input":16,
					"interpolation":"STEP",
					"output":32
				},
				{
					"input":16,
					"interpolation":"STEP",
					"output":33
				},
				{
					"input":16,
					"interpolation":"STEP",
					"output":34
				}
			]
		}
	],
	"materials":[
		{
			"doubleSided":true,
			"extensions":{
				"KHR_materials_specular":{
					"specularColorFactor":[
						2.371357614441398,
						2.371357614441398,
						2.371357614441398
					]
				},
				"KHR_materials_ior":{
					"ior":1.4500000476837158
				}
			},
			"name":"Default",
			"pbrMetallicRoughness":{
				"baseColorFactor":[
					0,
					0.5394790768623352,
					1,
					1
				],
				"roughnessFactor":0.5527864098548889
			}
		},
		{
			"doubleSided":true,
			"name":"Material",
			"pbrMetallicRoughness":{
				"baseColorFactor":[
					1,
					0.5451244115829468,
					0.05542977526783943,
					1
				],
				"metallicFactor":0,
				"roughnessFactor":0.5
			}
		},
		{
			"doubleSided":true,
			"extensions":{
				"KHR_materials_specular":{
					"specularColorFactor":[
						2.371357614441398,
						2.371357614441398,
						2.371357614441398
					]
				},
				"KHR_materials_ior":{
					"ior":1.4500000476837158
				}
			},
			"name":"roll",
			"pbrMetallicRoughness":{
				"baseColorFactor":[
					0.800000011920929,
					0.800000011920929,
					0.800000011920929,
					1
				],
				"roughnessFactor":0.5527864098548889
			}
		}
	],
	"meshes":[
		{
			"name":"Mesh.001",
			"primitives":[
				{
					"attributes":{
						"POSITION":0,
						"NORMAL":1,
						"TEXCOORD_0":2
					},
					"indices":3,
					"material":0
				}
			]
		},
		{
			"name":"Mesh.003",
			"primitives":[
				{
					"attributes":{
						"POSITION":4,
						"NORMAL":5,
						"TEXCOORD_0":6
					},
					"indices":7,
					"material":0
				}
			]
		},
		{
			"name":"Mesh.002",
			"primitives":[
				{
					"attributes":{
						"POSITION":8,
						"NORMAL":9,
						"TEXCOORD_0":10
					},
					"indices":11,
					"material":1
				}
			]
		},
		{
			"name":"Mesh",
			"primitives":[
				{
					"attributes":{
						"POSITION":12,
						"NORMAL":13,
						"TEXCOORD_0":14
					},
					"indices":15,
					"material":2
				}
			]
		}
	],
	"accessors":[
		{
			"bufferView":0,
			"componentType":5126,
			"count":3233,
			"max":[
				2.8000001907348633,
				1.600000023841858,
				4.909999847412109
			],
			"min":[
				-2.8000001907348633,
				-1.600000023841858,
				-4.909999847412109
			],
			"type":"VEC3"
		},
		{
			"bufferView":1,
			"componentType":5126,
			"count":3233,
			"type":"VEC3"
		},
		{
			"bufferView":2,
			"componentType":5126,
			"count":3233,
			"type":"VEC2"
		},
		{
			"bufferView":3,
			"componentType":5123,
			"count":16512,
			"type":"SCALAR"
		},
		{
			"bufferView":4,
			"componentType":5126,
			"count":553,
			"max":[
				2.674867630004883,
				1.4974613189697266,
				0.8633725643157959
			],
			"min":[
				-2.674867630004883,
				-1.4974613189697266,
				-0.8633725643157959
			],
			"type":"VEC3"
		},
		{
			"bufferView":5,
			"componentType":5126,
			"count":553,
			"type":"VEC3"
		},
		{
			"bufferView":6,
			"componentType":5126,
			"count":553,
			"type":"VEC2"
		},
		{
			"bufferView":7,
			"componentType":5123,
			"count":2856,
			"type":"SCALAR"
		},
		{
			"bufferView":8,
			"componentType":5126,
			"count":2040,
			"max":[
				2.8000001907348633,
				1.600000023841858,
				1.9800000190734863
			],
			"min":[
				-2.8000001907348633,
				-1.600000023841858,
				-1.9800000190734863
			],
			"type":"VEC3"
		},
		{
			"bufferView":9,
			"componentType":5126,
			"count":2040,
			"type":"VEC3"
		},
		{
			"bufferView":10,
			"componentType":5126,
			"count":2040,
			"type":"VEC2"
		},
		{
			"bufferView":11,
			"componentType":5123,
			"count":10896,
			"type":"SCALAR"
		},
		{
			"bufferView":12,
			"componentType":5126,
			"count":937,
			"max":[
				1.6405202150344849,
				1.6405202150344849,
				0.5089705586433411
			],
			"min":[
				-1.6405202150344849,
				-1.6405202150344849,
				-0.5089705586433411
			],
			"type":"VEC3"
		},
		{
			"bufferView":13,
			"componentType":5126,
			"count":937,
			"type":"VEC3"
		},
		{
			"bufferView":14,
			"componentType":5126,
			"count":937,
			"type":"VEC2"
		},
		{
			"bufferView":15,
			"componentType":5123,
			"count":4680,
			"type":"SCALAR"
		},
		{
			"bufferView":16,
			"componentType":5126,
			"count":2,
			"max":[
				5.041666666666667
			],
			"min":[
				0.041666666666666664
			],
			"type":"SCALAR"
		},
		{
			"bufferView":17,
			"componentType":5126,
			"count":2,
			"type":"VEC3"
		},
		{
			"bufferView":18,
			"componentType":5126,
			"count":2,
			"type":"VEC4"
		},
		{
			"bufferView":19,
			"componentType":5126,
			"count":2,
			"type":"VEC3"
		},
		{
			"bufferView":20,
			"componentType":5126,
			"count":2,
			"type":"VEC3"
		},
		{
			"bufferView":21,
			"componentType":5126,
			"count":2,
			"type":"VEC4"
		},
		{
			"bufferView":22,
			"componentType":5126,
			"count":2,
			"type":"VEC3"
		},
		{
			"bufferView":23,
			"componentType":5126,
			"count":2,
			"type":"VEC3"
		},
		{
			"bufferView":24,
			"componentType":5126,
			"count":2,
			"type":"VEC4"
		},
		{
			"bufferView":25,
			"componentType":5126,
			"count":2,
			"type":"VEC3"
		},
		{
			"bufferView":26,
			"componentType":5126,
			"count":2,
			"type":"VEC3"
		},
		{
			"bufferView":27,
			"componentType":5126,
			"count":2,
			"type":"VEC4"
		},
		{
			"bufferView":28,
			"componentType":5126,
			"count":2,
			"type":"VEC3"
		},
		{
			"bufferView":29,
			"componentType":5126,
			"count":2,
			"type":"VEC3"
		},
		{
			"bufferView":30,
			"componentType":5126,
			"count":2,
			"type":"VEC4"
		},
		{
			"bufferView":31,
			"componentType":5126,
			"count":2,
			"type":"VEC3"
		},
		{
			"bufferView":32,
			"componentType":5126,
			"count":2,
			"type":"VEC3"
		},
		{
			"bufferView":33,
			"componentType":5126,
			"count":2,
			"type":"VEC4"
		},
		{
			"bufferView":34,
			"componentType":5126,
			"count":2,
			"type":"VEC3"
		}
	],
	"bufferViews":[
		{
			"buffer":0,
			"byteLength":38796,
			"byteOffset":0,
			"target":34962
		},
		{
			"buffer":0,
			"byteLength":38796,
			"byteOffset":38796,
			"target":34962
		},
		{
			"buffer":0,
			"byteLength":25864,
			"byteOffset":77592,
			"target":34962
		},
		{
			"buffer":0,
			"byteLength":33024,
			"byteOffset":103456,
			"target":34963
		},
		{
			"buffer":0,
			"byteLength":6636,
			"byteOffset":136480,
			"target":34962
		},
		{
			"buffer":0,
			"byteLength":6636,
			"byteOffset":143116,
			"target":34962
		},
		{
			"buffer":0,
			"byteLength":4424,
			"byteOffset":149752,
			"target":34962
		},
		{
			"buffer":0,
			"byteLength":5712,
			"byteOffset":154176,
			"target":34963
		},
		{
			"buffer":0,
			"byteLength":24480,
			"byteOffset":159888,
			"target":34962
		},
		{
			"buffer":0,
			"byteLength":24480,
			"byteOffset":184368,
			"target":34962
		},
		{
			"buffer":0,
			"byteLength":16320,
			"byteOffset":208848,
			"target":34962
		},
		{
			"buffer":0,
			"byteLength":21792,
			"byteOffset":225168,
			"target":34963
		},
		{
			"buffer":0,
			"byteLength":11244,
			"byteOffset":246960,
			"target":34962
		},
		{
			"buffer":0,
			"byteLength":11244,
			"byteOffset":258204,
			"target":34962
		},
		{
			"buffer":0,
			"byteLength":7496,
			"byteOffset":269448,
			"target":34962
		},
		{
			"buffer":0,
			"byteLength":9360,
			"byteOffset":276944,
			"target":34963
		},
		{
			"buffer":0,
			"byteLength":8,
			"byteOffset":286304
		},
		{
			"buffer":0,
			"byteLength":24,
			"byteOffset":286312
		},
		{
			"buffer":0,
			"byteLength":32,
			"byteOffset":286336
		},
		{
			"buffer":0,
			"byteLength":24,
			"byteOffset":286368
		},
		{
			"buffer":0,
			"byteLength":24,
			"byteOffset":286392
		},
		{
			"buffer":0,
			"byteLength":32,
			"byteOffset":286416
		},
		{
			"buffer":0,
			"byteLength":24,
			"byteOffset":286448
		},
		{
			"buffer":0,
			"byteLength":24,
			"byteOffset":286472
		},
		{
			"buffer":0,
			"byteLength":32,
			"byteOffset":286496
		},
		{
			"buffer":0,
			"byteLength":24,
			"byteOffset":286528
		},
		{
			"buffer":0,
			"byteLength":24,
			"byteOffset":286552
		},
		{
			"buffer":0,
			"byteLength":32,
			"byteOffset":286576
		},
		{
			"buffer":0,
			"byteLength":24,
			"byteOffset":286608
		},
		{
			"buffer":0,
			"byteLength":24,
			"byteOffset":286632
		},
		{
			"buffer":0,
			"byteLength":32,
			"byteOffset":286656
		},
		{
			"buffer":0,
			"byteLength":24,
			"byteOffset":286688
		},
		{
			"buffer":0,
			"byteLength":24,
			"byteOffset":286712
		},
		{
			"buffer":0,
			"byteLength":32,
			"byteOffset":286736
		},
		{
			"buffer":0,
			"byteLength":24,
			"byteOffset":286768
		}
	],
	"buffers":[
		{
			"byteLength":286792,
			"uri":"deo.bin"
		}
	]
}
