{
	"asset":{
		"generator":"Khronos glTF Blender I/O v3.6.28",
		"version":"2.0"
	},
	"scene":0,
	"scenes":[
		{
			"name":"Scene",
			"nodes":[
				2,
				3
			]
		}
	],
	"nodes":[
		{
			"mesh":0,
			"name":"bottle (2)",
			"scale":[
				0.949999988079071,
				0.949999988079071,
				1
			],
			"translation":[
				0,
				0.24794645607471466,
				0
			]
		},
		{
			"mesh":1,
			"name":"cap",
			"translation":[
				0,
				0.16625945270061493,
				-9.34999942779541
			]
		},
		{
			"children":[
				0,
				1
			],
			"name":"bottle-soap-001",
			"rotation":[
				0.7071068286895752,
				0,
				0,
				0.7071068286895752
			],
			"scale":[
				0.05338288098573685,
				0.05338288098573685,
				0.05338288098573685
			]
		},
		{
			"name":"Texture Group",
			"rotation":[
				0.7071068286895752,
				0,
				0,
				0.7071068286895752
			],
			"scale":[
				0.05338288098573685,
				0.05338288098573685,
				0.05338288098573685
			]
		}
	],
	"materials":[
		{
			"doubleSided":true,
			"name":"wireframe",
			"pbrMetallicRoughness":{
				"baseColorFactor":[
					1,
					0.24934591352939606,
					0.7097217440605164,
					1
				],
				"metallicFactor":0,
				"roughnessFactor":0.5527864098548889
			}
		},
		{
			"doubleSided":true,
			"name":"Material",
			"pbrMetallicRoughness":{
				"baseColorFactor":[
					0.8000000715255737,
					0.4494119882583618,
					0.2507675588130951,
					1
				],
				"metallicFactor":0,
				"roughnessFactor":0.5
			}
		}
	],
	"meshes":[
		{
			"name":"Mesh.001",
			"primitives":[
				{
					"attributes":{
						"POSITION":0,
						"NORMAL":1,
						"TEXCOORD_0":2
					},
					"indices":3,
					"material":0
				}
			]
		},
		{
			"name":"Mesh",
			"primitives":[
				{
					"attributes":{
						"POSITION":4,
						"NORMAL":5,
						"TEXCOORD_0":6
					},
					"indices":7,
					"material":1
				}
			]
		}
	],
	"accessors":[
		{
			"bufferView":0,
			"componentType":5126,
			"count":2964,
			"max":[
				2.799999952316284,
				2.6337406635284424,
				0
			],
			"min":[
				-2.799999952316284,
				-2.6337406635284424,
				-10.955395698547363
			],
			"type":"VEC3"
		},
		{
			"bufferView":1,
			"componentType":5126,
			"count":2964,
			"type":"VEC3"
		},
		{
			"bufferView":2,
			"componentType":5126,
			"count":2964,
			"type":"VEC2"
		},
		{
			"bufferView":3,
			"componentType":5123,
			"count":16440,
			"type":"SCALAR"
		},
		{
			"bufferView":4,
			"componentType":5126,
			"count":4532,
			"max":[
				3.083034038543701,
				1.5187023878097534,
				0
			],
			"min":[
				-1.279068946838379,
				-1.0394353866577148,
				-3.9250009059906006
			],
			"type":"VEC3"
		},
		{
			"bufferView":5,
			"componentType":5126,
			"count":4532,
			"type":"VEC3"
		},
		{
			"bufferView":6,
			"componentType":5126,
			"count":4532,
			"type":"VEC2"
		},
		{
			"bufferView":7,
			"componentType":5123,
			"count":24204,
			"type":"SCALAR"
		}
	],
	"bufferViews":[
		{
			"buffer":0,
			"byteLength":35568,
			"byteOffset":0,
			"target":34962
		},
		{
			"buffer":0,
			"byteLength":35568,
			"byteOffset":35568,
			"target":34962
		},
		{
			"buffer":0,
			"byteLength":23712,
			"byteOffset":71136,
			"target":34962
		},
		{
			"buffer":0,
			"byteLength":32880,
			"byteOffset":94848,
			"target":34963
		},
		{
			"buffer":0,
			"byteLength":54384,
			"byteOffset":127728,
			"target":34962
		},
		{
			"buffer":0,
			"byteLength":54384,
			"byteOffset":182112,
			"target":34962
		},
		{
			"buffer":0,
			"byteLength":36256,
			"byteOffset":236496,
			"target":34962
		},
		{
			"buffer":0,
			"byteLength":48408,
			"byteOffset":272752,
			"target":34963
		}
	],
	"buffers":[
		{
			"byteLength":321160,
			"uri":"soap.bin"
		}
	]
}
